<svg xmlns="http://www.w3.org/2000/svg" viewBox="0 0 1683 403" width="100" height="24">
	<defs>
		<clipPath clipPathUnits="userSpaceOnUse" id="cp1">
			<path d="M0 0L1683 0L1683 403L0 403Z" />
		</clipPath>
	</defs>
	<style>
		tspan { white-space:pre }
		.shp0 { fill: #5aa983 } 
	</style>
	<g id="Page 1" clip-path="url(#cp1)">
		<path id="Path 1" class="shp0" d="M1221.08 0.14L1221.61 298.14L1264.59 298.06L1264.06 0.06L1221.08 0.14ZM252.05 0.03L209.07 0.1L209.6 298.1L252.58 298.02L252.05 0.03Z" />
		<path id="Path 2" fill-rule="evenodd" class="shp0" d="M670.59 310.56C668.57 362.46 626.4 403 574.5 403C522.61 403 479.23 361.24 478.01 309.34L478.01 302.05L520.58 302.05L520.99 308.94C522.2 337.73 545.72 360.43 574.5 360.43C603.29 360.43 626.8 338.13 628.02 309.34L628.02 281.78C612.21 292.32 593.56 297.99 574.5 297.99C538.83 297.99 506.39 278.53 489.36 246.91C483.28 235.56 479.23 222.18 478.42 208.39C478.01 206.77 478.01 204.74 478.01 202.31C478.01 148.79 520.99 105.41 574.1 105.41C625.99 105 668.57 145.55 670.59 197.44L670.59 310.56ZM627.62 200.69C627.62 184.88 622.75 172.31 612.61 162.58C602.88 152.85 589.91 147.98 574.1 147.98C559.1 147.98 546.12 153.25 535.99 162.98C525.85 172.71 520.99 185.28 520.99 201.09C520.99 216.5 525.85 229.07 535.99 239.2C546.12 249.34 558.69 254.21 574.5 254.21C590.32 254.21 602.88 249.34 613.02 239.61C622.75 229.88 627.62 217.72 627.62 201.9L627.62 200.69ZM461.39 200.28L461.39 205.55C460.17 232.72 447.6 258.26 426.52 275.69C409.49 290.29 387.6 297.99 365.3 297.99C343 298.4 321.11 290.29 303.67 276.1C281.78 257.85 268.8 230.69 268.8 201.9L268.8 105.81L311.37 105.81L311.78 201.5C311.78 216.09 317.46 229.47 327.59 239.61C337.73 249.75 351.11 255.42 365.3 255.42C394.08 255.42 418.41 231.5 418.82 202.71L418.82 105.41L461.39 105.41L461.79 198.66C461.79 199.07 461.79 199.47 461.39 200.28ZM163.8 133.38C182.45 152.03 192.18 174.74 192.18 201.09L192.18 203.93C191.77 222.58 186.5 240.01 176.36 254.61C158.53 281.77 128.52 297.99 96.09 297.99C82.3 297.99 68.92 295.15 56.36 289.48L55.54 289.07C53.52 287.86 51.49 287.04 49.46 285.83C47.44 284.61 45.81 283.4 43.79 282.18L42.98 281.77L43.38 402.59L0.4 402.59L0 201.5C0 152.03 36.89 110.68 85.95 105.41C89.6 105 92.84 105 96.09 105C122.85 105 145.55 114.33 163.8 133.38ZM149.61 201.09C149.61 184.87 144.74 172.31 134.6 162.57C124.87 152.84 111.9 147.98 96.09 147.98C80.68 147.98 68.11 153.25 57.98 162.98C47.84 173.12 42.98 185.28 42.98 201.09C42.98 216.5 47.84 229.07 57.98 239.2C68.11 249.34 81.09 254.2 96.49 254.2C112.31 254.2 124.87 249.34 135.01 239.61C145.15 229.88 149.61 217.31 149.61 201.09ZM1473.76 197.85L1474.17 297.59L1431.19 297.59L1431.19 281.77C1430.38 282.58 1429.17 282.99 1427.95 283.8L1427.14 284.21C1426.33 284.61 1425.92 285.02 1425.11 285.42C1410.52 293.53 1394.3 297.99 1377.68 297.99C1345.24 297.99 1314.83 281.77 1296.99 254.61C1295.78 252.99 1294.97 251.77 1294.16 250.15L1293.34 248.53C1293.34 248.12 1292.94 247.72 1292.53 246.91C1292.13 246.5 1291.72 245.69 1291.32 244.88L1289.7 241.64C1288.88 240.01 1288.48 237.99 1287.67 236.36L1286.86 234.34C1286.45 232.72 1285.64 231.09 1285.24 229.07L1284.43 227.04C1283.61 224.61 1283.21 222.17 1282.8 219.74L1282.8 218.53C1281.99 215.28 1281.99 212.44 1281.59 209.61C1281.18 206.77 1281.18 205.15 1281.18 202.71C1281.18 175.55 1290.51 152.44 1309.16 133.79C1327.4 115.14 1350.11 105.81 1376.46 105.41L1378.08 105.41C1381.32 105.41 1384.16 105.41 1387 105.81C1435.25 110.68 1471.74 149.2 1473.76 197.85ZM1430.79 200.69C1430.79 184.87 1425.92 172.31 1415.79 162.58C1406.06 152.84 1393.08 147.98 1377.27 147.98C1361.86 147.98 1349.3 152.84 1339.16 162.98C1329.02 173.12 1324.16 185.28 1324.16 201.09C1324.16 205.15 1324.16 208.79 1324.97 212.44C1327 222.99 1331.46 231.5 1339.16 239.2C1349.3 249.34 1361.86 254.2 1377.68 254.2C1393.49 254.2 1406.06 249.34 1416.19 239.61C1425.92 230.28 1430.79 217.71 1430.79 202.31L1430.79 200.69ZM1682.56 309.34C1680.54 361.24 1638.37 401.78 1586.48 401.78C1534.58 401.78 1491.2 360.02 1489.98 308.13L1489.98 300.83L1532.55 300.83L1532.96 307.72C1534.17 336.51 1557.69 359.21 1586.48 359.21C1615.26 359.21 1638.78 336.91 1639.99 308.13L1639.99 280.56C1624.18 291.1 1605.53 296.78 1586.48 296.78C1550.8 296.78 1518.36 277.31 1501.33 245.69C1497.28 238.8 1494.44 230.69 1492.41 221.77C1491.6 218.93 1491.2 215.69 1490.79 213.26L1490.79 212.44C1490.79 211.63 1490.39 210.82 1490.39 209.61L1490.39 203.93L1489.98 104.6L1532.55 104.6L1532.96 200.28C1532.96 203.52 1533.36 206.77 1533.77 210.01C1537.42 228.66 1550.39 244.47 1568.23 250.96C1578.37 254.2 1592.56 254.61 1603.5 251.77C1622.15 245.69 1635.94 229.88 1639.59 210.42C1639.99 207.58 1640.4 204.74 1640.4 201.9L1640.4 104.6L1682.97 104.6L1682.56 309.34Z" />
		<path id="Path 3" fill-rule="evenodd" class="shp0" d="M1174.15 134.2C1192.8 152.85 1202.53 175.55 1202.53 201.9L1202.53 204.74C1202.12 223.39 1196.85 240.83 1186.71 255.42C1168.88 282.59 1138.87 298.8 1106.44 298.8C1092.65 298.8 1079.27 295.96 1066.71 290.29L1065.89 289.88C1063.87 288.67 1061.84 287.86 1059.81 286.64C1057.79 285.42 1056.16 284.21 1054.14 282.99L1053.33 282.59L1053.73 402.59L1010.76 402.59L1010.35 202.31C1010.35 152.85 1047.65 111.49 1096.71 106.22C1100.36 105.81 1103.6 105.81 1106.84 105.81C1133.6 105.81 1156.31 115.14 1174.15 134.2ZM1160.36 201.9C1160.36 185.69 1155.5 173.12 1145.36 163.39C1135.63 153.66 1122.66 148.79 1106.84 148.79C1091.44 148.79 1078.87 154.06 1068.73 163.79C1058.6 173.93 1053.73 186.09 1053.73 201.9C1053.73 217.31 1058.6 229.88 1068.73 240.01C1078.87 250.15 1091.84 255.02 1107.25 255.02C1123.06 255.02 1135.63 250.15 1145.77 240.42C1155.5 230.28 1160.36 217.72 1160.36 201.9ZM956.83 269.61L925.21 299.61L893.18 264.34C888.72 269.21 883.85 274.07 878.58 278.13C876.15 280.15 873.72 282.18 871.28 283.8C870.88 283.8 870.88 284.21 870.47 284.21C861.15 290.29 850.61 295.15 838.85 297.18C837.63 297.18 836.82 297.59 835.61 297.59C829.93 298.8 824.25 299.21 818.58 299.21C785.33 299.21 756.14 282.59 738.71 257.04C735.46 252.18 732.62 246.91 730.19 241.23C725.33 229.47 722.49 216.91 722.49 203.53C722.49 171.9 739.11 141.49 765.87 124.06C760.19 118.38 755.73 112.3 752.49 105.41C752.49 105 752.09 104.6 752.09 104.19C751.27 102.57 750.87 100.95 750.06 99.33C750.06 98.52 749.65 97.3 749.25 96.49C748.84 95.27 748.44 94.06 748.03 92.84C747.63 91.63 747.22 90 746.81 88.38C746.81 87.57 746.41 87.17 746.41 86.35C745.6 81.89 745.19 77.43 745.19 72.57C745.19 33.65 776.01 2.02 814.12 0.4L820.6 0.4C858.72 1.62 889.53 33.65 889.53 72.57L889.53 78.25C889.53 79.46 889.12 80.68 889.12 81.89C889.12 82.71 888.72 83.52 888.72 84.33C888.31 85.54 888.31 86.76 887.91 87.98C887.91 88.79 887.5 89.6 887.5 90.41C887.1 91.63 886.69 92.84 886.28 94.06C885.88 94.46 885.88 95.27 885.47 96.09C885.07 97.3 884.66 98.52 884.26 99.73C883.85 100.54 883.45 101.36 883.04 102.17C882.23 103.38 881.82 104.19 881.42 105.41C880.61 107.44 879.8 109.06 878.58 110.68C878.18 111.09 878.18 111.49 877.77 111.9C877.37 113.11 876.55 113.92 875.74 115.14L875.34 115.55C874.12 117.57 872.09 119.6 870.47 121.63L868.45 124.06L859.53 134.2L829.93 100.95L829.93 100.54C831.15 98.92 832.77 96.9 834.39 95.27L834.79 94.87L837.23 91.63C838.04 90.41 839.25 88.79 840.06 87.57C840.47 86.76 840.47 86.35 840.88 85.95C841.28 85.14 841.69 84.73 842.09 83.92C843.71 80.27 844.93 76.62 844.93 72.57C844.52 67.7 843.71 62.43 841.69 58.38L841.28 57.57C840.88 56.76 840.06 55.95 839.25 54.73L838.85 54.32C838.04 53.11 836.42 51.89 834.79 50.27L834.39 49.87C833.17 49.05 832.36 48.24 831.55 47.84C831.15 47.43 830.33 47.43 829.93 47.03C828.71 46.62 827.5 45.81 825.87 45.41C825.47 45 824.66 44.59 823.85 44.59C823.44 44.59 823.04 44.19 822.23 44.19C821.01 44.19 819.39 43.78 817.77 43.78C816.14 43.78 814.93 43.78 813.31 44.19C812.9 44.19 812.09 44.59 811.68 44.59C811.28 45 810.47 45 809.66 45.41C808.44 45.81 806.82 46.22 805.6 47.03C804.79 47.43 804.39 47.43 803.98 47.84C802.76 48.65 801.95 49.05 801.14 49.87L800.74 50.27C799.12 51.49 797.9 52.7 796.68 54.32L796.28 54.73C795.47 55.95 794.66 56.76 794.25 57.57L793.85 58.38C791.82 62.84 791.01 68.11 790.6 72.57C790.6 76.62 791.82 80.27 793.44 83.92C793.85 84.73 794.25 85.14 794.66 85.95C794.66 86.76 795.06 87.17 795.47 87.57C796.28 88.79 797.09 90 798.3 91.63L800.74 94.87L801.14 95.27C802.76 97.3 803.98 98.92 805.6 100.54L815.33 111.49C818.98 115.55 823.04 120.01 826.69 124.06L846.55 145.95L853.04 152.85L855.88 155.68L885.07 188.12C888.72 178.79 891.15 169.06 893.58 160.14L938.99 160.14C935.34 177.58 928.86 201.5 917.91 224.61L956.83 269.61ZM863.58 229.88L861.96 228.26L818.17 179.6L797.49 156.9C779.25 165.41 767.49 183.25 767.49 203.12C767.49 212.45 769.92 220.96 774.38 228.26C775.2 229.88 776.41 231.1 777.22 232.31C786.55 245.29 801.55 253.8 818.58 254.21L819.79 254.21C821.01 254.21 822.23 253.8 823.44 253.8C840.06 252.99 855.07 244.07 863.58 229.88Z" />
	</g>
</svg>